<svg xmlns="http://www.w3.org/2000/svg" width="3840" height="1500"><path d="M2027,589L2317,639L2102,409Z" fill="#219371" stroke="#219371" stroke-width="1.51"/><path d="M2317,639L2364,331L2102,409Z" fill="#289470" stroke="#289470" stroke-width="1.51"/><path d="M2027,589L2176,903L2317,639Z" fill="#118f70" stroke="#118f70" stroke-width="1.51"/><path d="M2027,589L1764,630L2176,903Z" fill="#0d9272" stroke="#0d9272" stroke-width="1.51"/><path d="M1712,283L1764,630L2027,589Z" fill="#259a73" stroke="#259a73" stroke-width="1.51"/><path d="M2317,639L2681,514L2364,331Z" fill="#268f6e" stroke="#268f6e" stroke-width="1.51"/><path d="M2666,812L2681,514L2317,639Z" fill="#1b896b" stroke="#1b896b" stroke-width="1.51"/><path d="M2176,903L2452,985L2317,639Z" fill="#0f886c" stroke="#0f886c" stroke-width="1.51"/><path d="M2364,331L2153,11L2102,409Z" fill="#349a72" stroke="#349a72" stroke-width="1.51"/><path d="M2102,409L1712,283L2027,589Z" fill="#289a73" stroke="#289a73" stroke-width="1.51"/><path d="M2415,-65L2153,11L2364,331Z" fill="#3d9c71" stroke="#3d9c71" stroke-width="1.51"/><path d="M1857,51L1712,283L2102,409Z" fill="#34a075" stroke="#34a075" stroke-width="1.51"/><path d="M2452,985L2666,812L2317,639Z" fill="#11856a" stroke="#11856a" stroke-width="1.51"/><path d="M2176,903L2277,1098L2452,985Z" fill="#138269" stroke="#138269" stroke-width="1.51"/><path d="M1962,1291L2277,1098L2176,903Z" fill="#148168" stroke="#148168" stroke-width="1.51"/><path d="M2153,11L1857,51L2102,409Z" fill="#399f73" stroke="#399f73" stroke-width="1.51"/><path d="M2681,514L2672,194L2364,331Z" fill="#30916d" stroke="#30916d" stroke-width="1.51"/><path d="M2672,194L2415,-65L2364,331Z" fill="#3a976f" stroke="#3a976f" stroke-width="1.51"/><path d="M1807,-332L1571,12L1857,51Z" fill="#49aa76" stroke="#49aa76" stroke-width="1.51"/><path d="M1764,630L1685,1025L2176,903Z" fill="#0d8f70" stroke="#0d8f70" stroke-width="1.51"/><path d="M1465,688L1685,1025L1764,630Z" fill="#199572" stroke="#199572" stroke-width="1.51"/><path d="M1393,336L1465,688L1764,630Z" fill="#2d9d74" stroke="#2d9d74" stroke-width="1.51"/><path d="M1685,1025L1962,1291L2176,903Z" fill="#11866b" stroke="#11866b" stroke-width="1.51"/><path d="M1712,283L1393,336L1764,630Z" fill="#329f74" stroke="#329f74" stroke-width="1.51"/><path d="M1857,51L1571,12L1712,283Z" fill="#40a676" stroke="#40a676" stroke-width="1.51"/><path d="M2166,-287L1857,51L2153,11Z" fill="#45a674" stroke="#45a674" stroke-width="1.51"/><path d="M1571,12L1393,336L1712,283Z" fill="#3fa576" stroke="#3fa576" stroke-width="1.51"/><path d="M2672,194L2786,-24L2415,-65Z" fill="#40976e" stroke="#40976e" stroke-width="1.51"/><path d="M2869,-4L2786,-24L2672,194Z" fill="#3f946c" stroke="#3f946c" stroke-width="1.51"/><path d="M3085,396L2672,194L2681,514Z" fill="#2f8b6b" stroke="#2f8b6b" stroke-width="1.51"/><path d="M2415,-65L2166,-287L2153,11Z" fill="#46a372" stroke="#46a372" stroke-width="1.51"/><path d="M2428,-418L2166,-287L2415,-65Z" fill="#4da472" stroke="#4da472" stroke-width="1.51"/><path d="M2666,812L3039,717L2681,514Z" fill="#1a8369" stroke="#1a8369" stroke-width="1.51"/><path d="M2788,1256L2998,818L2666,812Z" fill="#177a64" stroke="#177a64" stroke-width="1.51"/><path d="M2788,1256L2666,812L2452,985Z" fill="#177a65" stroke="#177a65" stroke-width="1.51"/><path d="M2788,1256L2452,985L2659,1490Z" fill="#1a7260" stroke="#1a7260" stroke-width="1.51"/><path d="M1345,1212L1804,1322L1685,1025Z" fill="#218669" stroke="#218669" stroke-width="1.51"/><path d="M1685,1025L1804,1322L1962,1291Z" fill="#198368" stroke="#198368" stroke-width="1.51"/><path d="M2998,818L3039,717L2666,812Z" fill="#157f67" stroke="#157f67" stroke-width="1.51"/><path d="M2630,-395L2428,-418L2415,-65Z" fill="#4ea271" stroke="#4ea271" stroke-width="1.51"/><path d="M3085,396L2869,-4L2672,194Z" fill="#388e6b" stroke="#388e6b" stroke-width="1.51"/><path d="M1465,688L1393,938L1685,1025Z" fill="#219370" stroke="#219370" stroke-width="1.51"/><path d="M1277,709L1393,938L1465,688Z" fill="#259973" stroke="#259973" stroke-width="1.51"/><path d="M3039,717L3085,396L2681,514Z" fill="#258568" stroke="#258568" stroke-width="1.51"/><path d="M1393,336L1277,709L1465,688Z" fill="#309e75" stroke="#309e75" stroke-width="1.51"/><path d="M2332,1587L2277,1098L1962,1291Z" fill="#187763" stroke="#187763" stroke-width="1.51"/><path d="M2659,1490L2452,985L2277,1098Z" fill="#187762" stroke="#187762" stroke-width="1.51"/><path d="M2166,-287L1807,-332L1857,51Z" fill="#4aab76" stroke="#4aab76" stroke-width="1.51"/><path d="M1393,336L1227,367L1277,709Z" fill="#39a275" stroke="#39a275" stroke-width="1.51"/><path d="M1157,90L1227,367L1393,336Z" fill="#44a876" stroke="#44a876" stroke-width="1.51"/><path d="M1157,90L1393,336L1571,12Z" fill="#47a976" stroke="#47a976" stroke-width="1.51"/><path d="M1799,1468L1972,1505L1962,1291Z" fill="#187964" stroke="#187964" stroke-width="1.51"/><path d="M1799,1468L1962,1291L1804,1322Z" fill="#197d65" stroke="#197d65" stroke-width="1.51"/><path d="M1571,1637L1799,1468L1804,1322Z" fill="#1f7963" stroke="#1f7963" stroke-width="1.51"/><path d="M1277,709L1258,905L1393,938Z" fill="#289772" stroke="#289772" stroke-width="1.51"/><path d="M967,614L1258,905L1277,709Z" fill="#2c9c74" stroke="#2c9c74" stroke-width="1.51"/><path d="M1345,1212L1685,1025L1393,938Z" fill="#248c6d" stroke="#248c6d" stroke-width="1.51"/><path d="M2630,-395L2415,-65L2786,-24Z" fill="#499c6f" stroke="#499c6f" stroke-width="1.51"/><path d="M2166,-287L2428,-418L1807,-332Z" fill="#51ab74" stroke="#51ab74" stroke-width="1.51"/><path d="M3062,-360L2630,-395L2786,-24Z" fill="#4d9a6d" stroke="#4d9a6d" stroke-width="1.51"/><path d="M2098,1792L2332,1587L1972,1505Z" fill="#1b6d5d" stroke="#1b6d5d" stroke-width="1.51"/><path d="M1972,1505L2332,1587L1962,1291Z" fill="#197461" stroke="#197461" stroke-width="1.51"/><path d="M2332,1587L2659,1490L2277,1098Z" fill="#1a715f" stroke="#1a715f" stroke-width="1.51"/><path d="M1258,905L1345,1212L1393,938Z" fill="#28906e" stroke="#28906e" stroke-width="1.51"/><path d="M1807,-332L1572,-355L1571,12Z" fill="#52af77" stroke="#52af77" stroke-width="1.51"/><path d="M2428,-418L1572,-355L1807,-332Z" fill="#52af77" stroke="#52af77" stroke-width="1.51"/><path d="M3039,717L3270,672L3085,396Z" fill="#227f65" stroke="#227f65" stroke-width="1.51"/><path d="M3085,396L3399,24L2869,-4Z" fill="#3b8b68" stroke="#3b8b68" stroke-width="1.51"/><path d="M2998,818L3270,672L3039,717Z" fill="#177d65" stroke="#177d65" stroke-width="1.51"/><path d="M3407,920L3270,672L2998,818Z" fill="#187863" stroke="#187863" stroke-width="1.51"/><path d="M3040,1269L2998,818L2788,1256Z" fill="#1a715f" stroke="#1a715f" stroke-width="1.51"/><path d="M2990,1495L3040,1269L2788,1256Z" fill="#1c695a" stroke="#1c695a" stroke-width="1.51"/><path d="M1227,367L967,614L1277,709Z" fill="#38a175" stroke="#38a175" stroke-width="1.51"/><path d="M1214,-407L1157,90L1571,12Z" fill="#53b077" stroke="#53b077" stroke-width="1.51"/><path d="M1258,905L1094,1126L1345,1212Z" fill="#2c8f6d" stroke="#2c8f6d" stroke-width="1.51"/><path d="M766,347L967,614L1227,367Z" fill="#42a776" stroke="#42a776" stroke-width="1.51"/><path d="M3040,1269L3267,1106L2998,818Z" fill="#1a705f" stroke="#1a705f" stroke-width="1.51"/><path d="M3270,672L3375,267L3085,396Z" fill="#2c8165" stroke="#2c8165" stroke-width="1.51"/><path d="M2869,-4L3062,-360L2786,-24Z" fill="#47956c" stroke="#47956c" stroke-width="1.51"/><path d="M3608,721L3375,267L3270,672Z" fill="#267b63" stroke="#267b63" stroke-width="1.51"/><path d="M1729,1941L1972,1505L1799,1468Z" fill="#1d725f" stroke="#1d725f" stroke-width="1.51"/><path d="M919,1021L1094,1126L1258,905Z" fill="#30936f" stroke="#30936f" stroke-width="1.51"/><path d="M2806,1745L2990,1495L2659,1490Z" fill="#1d6357" stroke="#1d6357" stroke-width="1.51"/><path d="M2659,1490L2990,1495L2788,1256Z" fill="#1c695a" stroke="#1c695a" stroke-width="1.51"/><path d="M3040,1269L3410,1555L3267,1106Z" fill="#1d6458" stroke="#1d6458" stroke-width="1.51"/><path d="M1729,1941L2098,1792L1972,1505Z" fill="#1b6c5d" stroke="#1b6c5d" stroke-width="1.51"/><path d="M2332,1587L2806,1745L2659,1490Z" fill="#1d6659" stroke="#1d6659" stroke-width="1.51"/><path d="M1571,1637L1804,1322L1345,1212Z" fill="#247e65" stroke="#247e65" stroke-width="1.51"/><path d="M1038,1430L1571,1637L1345,1212Z" fill="#2b8065" stroke="#2b8065" stroke-width="1.51"/><path d="M3262,-239L3062,-360L2869,-4Z" fill="#4a946a" stroke="#4a946a" stroke-width="1.51"/><path d="M2630,-395L3861,-438L2428,-418Z" fill="#529c6c" stroke="#529c6c" stroke-width="1.51"/><path d="M3503,840L3407,920L3809,1109Z" fill="#1c6c5c" stroke="#1c6c5c" stroke-width="1.51"/><path d="M3267,1106L3407,920L2998,818Z" fill="#1a7360" stroke="#1a7360" stroke-width="1.51"/><path d="M3375,267L3399,24L3085,396Z" fill="#378566" stroke="#378566" stroke-width="1.51"/><path d="M3678,167L3399,24L3375,267Z" fill="#3a8464" stroke="#3a8464" stroke-width="1.51"/><path d="M3399,24L3262,-239L2869,-4Z" fill="#448f68" stroke="#448f68" stroke-width="1.51"/><path d="M2286,1895L2806,1745L2332,1587Z" fill="#1d6357" stroke="#1d6357" stroke-width="1.51"/><path d="M967,614L919,1021L1258,905Z" fill="#309a72" stroke="#309a72" stroke-width="1.51"/><path d="M1094,1126L1038,1430L1345,1212Z" fill="#2f8869" stroke="#2f8869" stroke-width="1.51"/><path d="M2098,1792L2286,1895L2332,1587Z" fill="#1d6759" stroke="#1d6759" stroke-width="1.51"/><path d="M1729,1941L2286,1895L2098,1792Z" fill="#1c6659" stroke="#1c6659" stroke-width="1.51"/><path d="M3407,920L3503,840L3270,672Z" fill="#197461" stroke="#197461" stroke-width="1.51"/><path d="M3680,1297L3407,920L3267,1106Z" fill="#1c685a" stroke="#1c685a" stroke-width="1.51"/><path d="M3608,721L3503,840L3809,1109Z" fill="#1b6d5d" stroke="#1b6d5d" stroke-width="1.51"/><path d="M1572,-355L1214,-407L1571,12Z" fill="#57b377" stroke="#57b377" stroke-width="1.51"/><path d="M1157,90L871,98L1227,367Z" fill="#4cac77" stroke="#4cac77" stroke-width="1.51"/><path d="M2428,-418L1214,-407L1572,-355Z" fill="#57b377" stroke="#57b377" stroke-width="1.51"/><path d="M837,-391L871,98L1157,90Z" fill="#5ab478" stroke="#5ab478" stroke-width="1.51"/><path d="M967,614L604,890L919,1021Z" fill="#379d73" stroke="#379d73" stroke-width="1.51"/><path d="M871,98L766,347L1227,367Z" fill="#4bab76" stroke="#4bab76" stroke-width="1.51"/><path d="M3503,840L3608,721L3270,672Z" fill="#197562" stroke="#197562" stroke-width="1.51"/><path d="M3410,1555L3040,1269L2990,1495Z" fill="#1d6156" stroke="#1d6156" stroke-width="1.51"/><path d="M878,1255L1038,1430L1094,1126Z" fill="#338a69" stroke="#338a69" stroke-width="1.51"/><path d="M1537,1877L1729,1941L1571,1637Z" fill="#256e5c" stroke="#256e5c" stroke-width="1.51"/><path d="M1571,1637L1729,1941L1799,1468Z" fill="#22725f" stroke="#22725f" stroke-width="1.51"/><path d="M1059,1749L1537,1877L1571,1637Z" fill="#2b735e" stroke="#2b735e" stroke-width="1.51"/><path d="M595,1161L878,1255L919,1021Z" fill="#38926c" stroke="#38926c" stroke-width="1.51"/><path d="M919,1021L878,1255L1094,1126Z" fill="#34906c" stroke="#34906c" stroke-width="1.51"/><path d="M3399,24L3676,-40L3262,-239Z" fill="#458a66" stroke="#458a66" stroke-width="1.51"/><path d="M3854,414L3678,167L3375,267Z" fill="#347e62" stroke="#347e62" stroke-width="1.51"/><path d="M3305,1748L3410,1555L2990,1495Z" fill="#1e5a52" stroke="#1e5a52" stroke-width="1.51"/><path d="M3678,167L3676,-40L3399,24Z" fill="#3f8464" stroke="#3f8464" stroke-width="1.51"/><path d="M3262,-239L3725,-415L3062,-360Z" fill="#4e9268" stroke="#4e9268" stroke-width="1.51"/><path d="M766,347L584,416L967,614Z" fill="#46a976" stroke="#46a976" stroke-width="1.51"/><path d="M639,25L584,416L766,347Z" fill="#52af77" stroke="#52af77" stroke-width="1.51"/><path d="M639,25L766,347L871,98Z" fill="#55b177" stroke="#55b177" stroke-width="1.51"/><path d="M584,416L604,890L967,614Z" fill="#3fa575" stroke="#3fa575" stroke-width="1.51"/><path d="M2806,1745L3123,1881L2990,1495Z" fill="#1d5b53" stroke="#1d5b53" stroke-width="1.51"/><path d="M2286,1895L3123,1881L2806,1745Z" fill="#1d5a53" stroke="#1d5a53" stroke-width="1.51"/><path d="M1729,1941L3123,1881L2286,1895Z" fill="#1d5f55" stroke="#1d5f55" stroke-width="1.51"/><path d="M837,-391L639,25L871,98Z" fill="#5eb778" stroke="#5eb778" stroke-width="1.51"/><path d="M1214,-407L837,-391L1157,90Z" fill="#5fb778" stroke="#5fb778" stroke-width="1.51"/><path d="M3123,1881L3305,1748L2990,1495Z" fill="#1e5851" stroke="#1e5851" stroke-width="1.51"/><path d="M836,1622L1059,1749L1038,1430Z" fill="#347e62" stroke="#347e62" stroke-width="1.51"/><path d="M1038,1430L1059,1749L1571,1637Z" fill="#2e7b61" stroke="#2e7b61" stroke-width="1.51"/><path d="M1537,1877L970,1870L1729,1941Z" fill="#2a6e5b" stroke="#2a6e5b" stroke-width="1.51"/><path d="M836,1622L1038,1430L878,1255Z" fill="#368566" stroke="#368566" stroke-width="1.51"/><path d="M3592,1474L3267,1106L3410,1555Z" fill="#1e5e54" stroke="#1e5e54" stroke-width="1.51"/><path d="M3592,1474L3680,1297L3267,1106Z" fill="#1d6056" stroke="#1d6056" stroke-width="1.51"/><path d="M3608,721L3854,414L3375,267Z" fill="#2b7962" stroke="#2b7962" stroke-width="1.51"/><path d="M3678,167L3881,-113L3676,-40Z" fill="#408263" stroke="#408263" stroke-width="1.51"/><path d="M4007,624L3854,414L3608,721Z" fill="#25725f" stroke="#25725f" stroke-width="1.51"/><path d="M3659,1715L3592,1474L3410,1555Z" fill="#1e554f" stroke="#1e554f" stroke-width="1.51"/><path d="M604,890L595,1161L919,1021Z" fill="#3a986f" stroke="#3a986f" stroke-width="1.51"/><path d="M325,898L595,1161L604,890Z" fill="#3f9c70" stroke="#3f9c70" stroke-width="1.51"/><path d="M3907,1016L3809,1109L4202,1215Z" fill="#1d5f55" stroke="#1d5f55" stroke-width="1.51"/><path d="M3680,1297L3809,1109L3407,920Z" fill="#1d6558" stroke="#1d6558" stroke-width="1.51"/><path d="M611,1574L836,1622L878,1255Z" fill="#398565" stroke="#398565" stroke-width="1.51"/><path d="M192,569L424,692L584,416Z" fill="#4bab77" stroke="#4bab77" stroke-width="1.51"/><path d="M584,416L424,692L604,890Z" fill="#42a776" stroke="#42a776" stroke-width="1.51"/><path d="M837,-391L606,-289L639,25Z" fill="#65bb79" stroke="#65bb79" stroke-width="1.51"/><path d="M206,287L192,569L584,416Z" fill="#52b077" stroke="#52b077" stroke-width="1.51"/><path d="M3809,1109L3907,1016L3608,721Z" fill="#1c685a" stroke="#1c685a" stroke-width="1.51"/><path d="M4202,1215L3809,1109L3680,1297Z" fill="#1d5d54" stroke="#1d5d54" stroke-width="1.51"/><path d="M836,1622L970,1870L1059,1749Z" fill="#35795f" stroke="#35795f" stroke-width="1.51"/><path d="M1059,1749L970,1870L1537,1877Z" fill="#2f735d" stroke="#2f735d" stroke-width="1.51"/><path d="M3881,-113L3725,-415L3676,-40Z" fill="#488763" stroke="#488763" stroke-width="1.51"/><path d="M3676,-40L3725,-415L3262,-239Z" fill="#4a8c65" stroke="#4a8c65" stroke-width="1.51"/><path d="M3062,-360L3725,-415L2630,-395Z" fill="#51986a" stroke="#51986a" stroke-width="1.51"/><path d="M3854,414L3881,-113L3678,167Z" fill="#3a7d61" stroke="#3a7d61" stroke-width="1.51"/><path d="M4095,413L3881,-113L3854,414Z" fill="#36795f" stroke="#36795f" stroke-width="1.51"/><path d="M3907,1016L4007,624L3608,721Z" fill="#1b6d5d" stroke="#1b6d5d" stroke-width="1.51"/><path d="M836,1622L448,1870L970,1870Z" fill="#39795f" stroke="#39795f" stroke-width="1.51"/><path d="M595,1161L611,1574L878,1255Z" fill="#3b8c68" stroke="#3b8c68" stroke-width="1.51"/><path d="M278,1202L611,1574L595,1161Z" fill="#3f8f69" stroke="#3f8f69" stroke-width="1.51"/><path d="M3592,1474L4024,1645L3680,1297Z" fill="#1e554f" stroke="#1e554f" stroke-width="1.51"/><path d="M3305,1748L3659,1715L3410,1555Z" fill="#1e534e" stroke="#1e534e" stroke-width="1.51"/><path d="M3123,1881L3659,1715L3305,1748Z" fill="#1d524d" stroke="#1d524d" stroke-width="1.51"/><path d="M424,692L325,898L604,890Z" fill="#40a374" stroke="#40a374" stroke-width="1.51"/><path d="M192,569L325,898L424,692Z" fill="#45a876" stroke="#45a876" stroke-width="1.51"/><path d="M4176,627L4095,413L4007,624Z" fill="#276e5c" stroke="#276e5c" stroke-width="1.51"/><path d="M4007,624L4095,413L3854,414Z" fill="#2a725d" stroke="#2a725d" stroke-width="1.51"/><path d="M3725,-415L3861,-438L2630,-395Z" fill="#519368" stroke="#519368" stroke-width="1.51"/><path d="M2428,-418L-269,-441L1214,-407Z" fill="#65bb79" stroke="#65bb79" stroke-width="1.51"/><path d="M3881,-113L3861,-438L3725,-415Z" fill="#4d8963" stroke="#4d8963" stroke-width="1.51"/><path d="M4188,-247L3861,-438L3881,-113Z" fill="#4a8561" stroke="#4a8561" stroke-width="1.51"/><path d="M206,287L584,416L639,25Z" fill="#57b278" stroke="#57b278" stroke-width="1.51"/><path d="M4312,822L4176,627L4007,624Z" fill="#206a5b" stroke="#206a5b" stroke-width="1.51"/><path d="M4337,25L4188,-247L3881,-113Z" fill="#447d5f" stroke="#447d5f" stroke-width="1.51"/><path d="M4312,822L4007,624L3907,1016Z" fill="#1c675a" stroke="#1c675a" stroke-width="1.51"/><path d="M254,-18L206,287L639,25Z" fill="#5fb779" stroke="#5fb779" stroke-width="1.51"/><path d="M606,-289L254,-18L639,25Z" fill="#65bb79" stroke="#65bb79" stroke-width="1.51"/><path d="M-106,868L278,1202L325,898Z" fill="#479f71" stroke="#479f71" stroke-width="1.51"/><path d="M325,898L278,1202L595,1161Z" fill="#42996f" stroke="#42996f" stroke-width="1.51"/><path d="M254,-18L2,236L206,287Z" fill="#61b979" stroke="#61b979" stroke-width="1.51"/><path d="M606,-289L244,-221L254,-18Z" fill="#6abf7a" stroke="#6abf7a" stroke-width="1.51"/><path d="M-269,-441L244,-221L606,-289Z" fill="#73c57a" stroke="#73c57a" stroke-width="1.51"/><path d="M4024,1645L4202,1215L3680,1297Z" fill="#1e554f" stroke="#1e554f" stroke-width="1.51"/><path d="M3659,1715L4024,1645L3592,1474Z" fill="#1e504d" stroke="#1e504d" stroke-width="1.51"/><path d="M3966,1812L4024,1645L3659,1715Z" fill="#1e4a49" stroke="#1e4a49" stroke-width="1.51"/><path d="M4202,1215L4312,822L3907,1016Z" fill="#1d5f55" stroke="#1d5f55" stroke-width="1.51"/><path d="M4337,25L3881,-113L4095,413Z" fill="#3b795e" stroke="#3b795e" stroke-width="1.51"/><path d="M4337,25L4095,413L4476,361Z" fill="#34725b" stroke="#34725b" stroke-width="1.51"/><path d="M611,1574L448,1870L836,1622Z" fill="#3c7f61" stroke="#3c7f61" stroke-width="1.51"/><path d="M970,1870L-204,1933L1729,1941Z" fill="#38735c" stroke="#38735c" stroke-width="1.51"/><path d="M303,1762L448,1870L611,1574Z" fill="#407f61" stroke="#407f61" stroke-width="1.51"/><path d="M4108,1931L3966,1812L3659,1715Z" fill="#1e4646" stroke="#1e4646" stroke-width="1.51"/><path d="M4298,1587L4424,1237L4202,1215Z" fill="#1e504c" stroke="#1e504c" stroke-width="1.51"/><path d="M278,1202L210,1512L611,1574Z" fill="#428c67" stroke="#428c67" stroke-width="1.51"/><path d="M34,1573L210,1512L-113,1252Z" fill="#498f68" stroke="#498f68" stroke-width="1.51"/><path d="M-198,85L2,236L254,-18Z" fill="#66bc79" stroke="#66bc79" stroke-width="1.51"/><path d="M206,287L2,236L192,569Z" fill="#59b478" stroke="#59b478" stroke-width="1.51"/><path d="M192,569L-26,723L325,898Z" fill="#48aa76" stroke="#48aa76" stroke-width="1.51"/><path d="M2,236L-26,723L192,569Z" fill="#55b177" stroke="#55b177" stroke-width="1.51"/><path d="M4476,361L4095,413L4176,627Z" fill="#2c6d5b" stroke="#2c6d5b" stroke-width="1.51"/><path d="M210,1512L303,1762L611,1574Z" fill="#428564" stroke="#428564" stroke-width="1.51"/><path d="M4312,822L4410,808L4176,627Z" fill="#1c6659" stroke="#1c6659" stroke-width="1.51"/><path d="M4424,1237L4410,808L4312,822Z" fill="#1d5d54" stroke="#1d5d54" stroke-width="1.51"/><path d="M4424,1237L4312,822L4202,1215Z" fill="#1e5951" stroke="#1e5951" stroke-width="1.51"/><path d="M4410,808L4476,361L4176,627Z" fill="#256959" stroke="#256959" stroke-width="1.51"/><path d="M4476,361L4436,78L4337,25Z" fill="#39735b" stroke="#39735b" stroke-width="1.51"/><path d="M4337,25L4504,-331L4188,-247Z" fill="#477b5d" stroke="#477b5d" stroke-width="1.51"/><path d="M210,1512L34,1573L303,1762Z" fill="#468764" stroke="#468764" stroke-width="1.51"/><path d="M-26,723L-106,868L325,898Z" fill="#49a875" stroke="#49a875" stroke-width="1.51"/><path d="M-355,698L-106,868L-26,723Z" fill="#4fad76" stroke="#4fad76" stroke-width="1.51"/><path d="M4410,808L4635,472L4476,361Z" fill="#286959" stroke="#286959" stroke-width="1.51"/><path d="M4298,1587L4202,1215L4024,1645Z" fill="#1e4e4b" stroke="#1e4e4b" stroke-width="1.51"/><path d="M4108,1931L4298,1587L4024,1645Z" fill="#1e4646" stroke="#1e4646" stroke-width="1.51"/><path d="M3966,1812L4108,1931L4024,1645Z" fill="#1d4546" stroke="#1d4546" stroke-width="1.51"/><path d="M3123,1881L4108,1931L3659,1715Z" fill="#1e4a49" stroke="#1e4a49" stroke-width="1.51"/><path d="M1729,1941L4108,1931L3123,1881Z" fill="#1e534e" stroke="#1e534e" stroke-width="1.51"/><path d="M-113,1252L210,1512L278,1202Z" fill="#48936a" stroke="#48936a" stroke-width="1.51"/><path d="M303,1762L-204,1933L448,1870Z" fill="#457e5f" stroke="#457e5f" stroke-width="1.51"/><path d="M-106,868L-113,1252L278,1202Z" fill="#4a9d6f" stroke="#4a9d6f" stroke-width="1.51"/><path d="M2,236L-355,698L-26,723Z" fill="#57b278" stroke="#57b278" stroke-width="1.51"/><path d="M-106,868L-291,1325L-113,1252Z" fill="#4e9d6e" stroke="#4e9d6e" stroke-width="1.51"/><path d="M-124,-219L-198,85L254,-18Z" fill="#6dc07a" stroke="#6dc07a" stroke-width="1.51"/><path d="M244,-221L-124,-219L254,-18Z" fill="#6ec17a" stroke="#6ec17a" stroke-width="1.51"/><path d="M-269,-441L-124,-219L244,-221Z" fill="#77c77b" stroke="#77c77b" stroke-width="1.51"/><path d="M4476,361L4635,472L4436,78Z" fill="#336f5a" stroke="#336f5a" stroke-width="1.51"/><path d="M4424,1237L4635,472L4410,808Z" fill="#1d6156" stroke="#1d6156" stroke-width="1.51"/><path d="M4635,472L4504,-331L4436,78Z" fill="#3c745b" stroke="#3c745b" stroke-width="1.51"/><path d="M4436,78L4504,-331L4337,25Z" fill="#42785c" stroke="#42785c" stroke-width="1.51"/><path d="M4188,-247L4504,-331L3861,-438Z" fill="#4d825f" stroke="#4d825f" stroke-width="1.51"/><path d="M-403,783L-355,698L-504,307Z" fill="#5bb578" stroke="#5bb578" stroke-width="1.51"/><path d="M-504,307L-355,698L2,236Z" fill="#60b878" stroke="#60b878" stroke-width="1.51"/><path d="M-403,783L-291,1325L-106,868Z" fill="#51a572" stroke="#51a572" stroke-width="1.51"/><path d="M-113,1252L-291,1325L34,1573Z" fill="#4c9469" stroke="#4c9469" stroke-width="1.51"/><path d="M-355,698L-403,783L-106,868Z" fill="#52ae76" stroke="#52ae76" stroke-width="1.51"/><path d="M-504,307L2,236L-198,85Z" fill="#67bd79" stroke="#67bd79" stroke-width="1.51"/><path d="M4424,1237L4589,1604L4635,472Z" fill="#1e5851" stroke="#1e5851" stroke-width="1.51"/><path d="M4298,1587L4589,1604L4424,1237Z" fill="#1d4a49" stroke="#1d4a49" stroke-width="1.51"/><path d="M4578,1783L4589,1604L4298,1587Z" fill="#1d4445" stroke="#1d4445" stroke-width="1.51"/><path d="M-124,-219L-440,-145L-198,85Z" fill="#73c47a" stroke="#73c47a" stroke-width="1.51"/><path d="M837,-391L-269,-441L606,-289Z" fill="#71c37a" stroke="#71c37a" stroke-width="1.51"/><path d="M1214,-407L-269,-441L837,-391Z" fill="#6fc27a" stroke="#6fc27a" stroke-width="1.51"/><path d="M3861,-438L-269,-441L2428,-418Z" fill="#55b076" stroke="#55b076" stroke-width="1.51"/><path d="M4108,1931L4578,1783L4298,1587Z" fill="#1d4144" stroke="#1d4144" stroke-width="1.51"/><path d="M-440,-145L-504,307L-198,85Z" fill="#6fc27a" stroke="#6fc27a" stroke-width="1.51"/><path d="M-403,783L-340,1643L-291,1325Z" fill="#529c6c" stroke="#529c6c" stroke-width="1.51"/><path d="M-269,-441L-440,-145L-124,-219Z" fill="#7aca7b" stroke="#7aca7b" stroke-width="1.51"/><path d="M-504,307L-340,1643L-403,783Z" fill="#54aa74" stroke="#54aa74" stroke-width="1.51"/><path d="M-291,1325L-340,1643L34,1573Z" fill="#4d9067" stroke="#4d9067" stroke-width="1.51"/><path d="M34,1573L-204,1933L303,1762Z" fill="#488361" stroke="#488361" stroke-width="1.51"/><path d="M-299,1802L-204,1933L34,1573Z" fill="#4b8561" stroke="#4b8561" stroke-width="1.51"/><path d="M448,1870L-204,1933L970,1870Z" fill="#407a5e" stroke="#407a5e" stroke-width="1.51"/><path d="M-340,1643L-299,1802L34,1573Z" fill="#4d8963" stroke="#4d8963" stroke-width="1.51"/></svg>